<svg width="3508" height="1125" xmlns="http://www.w3.org/2000/svg" xmlns:xlink="http://www.w3.org/1999/xlink" xml:space="preserve" overflow="hidden"><defs><clipPath id="clip0"><rect x="446" y="675" width="3508" height="1125"/></clipPath><clipPath id="clip1"><rect x="2829" y="675" width="1126" height="1125"/></clipPath><clipPath id="clip2"><rect x="2829" y="675" width="1126" height="1125"/></clipPath><clipPath id="clip3"><rect x="2829" y="675" width="1126" height="1125"/></clipPath><clipPath id="clip4"><rect x="1919" y="957" width="562" height="561"/></clipPath><clipPath id="clip5"><rect x="1919" y="957" width="562" height="561"/></clipPath><clipPath id="clip6"><rect x="1919" y="957" width="562" height="561"/></clipPath><clipPath id="clip7"><rect x="445" y="675" width="1126" height="1125"/></clipPath><clipPath id="clip8"><rect x="445" y="675" width="1126" height="1125"/></clipPath><clipPath id="clip9"><rect x="445" y="675" width="1126" height="1125"/></clipPath></defs><g clip-path="url(#clip0)" transform="translate(-446 -675)"><g clip-path="url(#clip1)"><g clip-path="url(#clip2)"><g clip-path="url(#clip3)"><path d="M3813.38 1589.06 2969.62 1589.06C2911.38 1589.06 2864.16 1541.84 2864.16 1483.59L2864.16 850.781C2864.16 792.533 2911.38 745.313 2969.62 745.313L3813.38 745.313C3871.62 745.313 3918.84 792.533 3918.84 850.781L3918.84 1483.59C3918.84 1541.84 3871.62 1589.06 3813.38 1589.06ZM3848.53 850.781C3848.53 831.365 3832.79 815.625 3813.38 815.625L2969.62 815.625C2950.21 815.625 2934.47 831.365 2934.47 850.781L2934.47 1483.59C2934.47 1503.01 2950.21 1518.75 2969.62 1518.75L3813.38 1518.75C3832.79 1518.75 3848.53 1503.01 3848.53 1483.59L3848.53 850.781ZM3531.84 1284.19 3637.31 1167.19 3531.84 1050.19 3584.58 991.688 3742.78 1167.19 3584.58 1342.65ZM3198.46 1342.69 3040.22 1167.19 3198.42 991.723 3251.16 1050.22 3145.69 1167.19 3251.16 1284.19ZM3743.06 1729.69 3039.94 1729.69 3039.94 1659.37 3743.06 1659.37 3743.06 1729.69Z" fill="#007AFF"/></g></g></g><g clip-path="url(#clip4)"><g clip-path="url(#clip5)"><g clip-path="url(#clip6)"><path d="M327.25 70.125 116.875 70.125C91.0557 70.125 70.125 91.0557 70.125 116.875L70.125 327.25C70.125 353.069 91.0557 374 116.875 374L187 374 187 327.25 116.875 327.25 116.875 116.875 327.25 116.875 327.25 327.25 280.5 327.25 280.5 374 327.25 374C353.069 374 374 353.069 374 327.25L374 116.875C374 91.0557 353.069 70.125 327.25 70.125Z" fill="#707070" transform="matrix(1.00178 0 0 1 1919 957)"/><path d="M467.5 210.375 397.375 210.375 397.375 257.125 467.5 257.125 467.5 467.5 257.125 467.5 257.125 257.125 303.875 257.125 303.875 210.375 257.125 210.375C231.306 210.375 210.375 231.306 210.375 257.125L210.375 467.5C210.375 493.319 231.306 514.25 257.125 514.25L467.5 514.25C493.319 514.25 514.25 493.319 514.25 467.5L514.25 257.125C514.25 231.306 493.319 210.375 467.5 210.375Z" fill="#707070" transform="matrix(1.00178 0 0 1 1919 957)"/></g></g></g><g clip-path="url(#clip7)"><g clip-path="url(#clip8)"><g clip-path="url(#clip9)"><path d="M1177.25 1302.56 965 1302.56C813.617 1302.46 690.894 1179.82 690.687 1028.44L690.687 977.25C690.687 961.717 703.279 949.125 718.812 949.125 734.345 949.125 746.937 961.717 746.937 977.25L746.937 1028.44C747.144 1148.75 844.683 1246.21 965 1246.31L1177.25 1246.31C1297.57 1246.21 1395.11 1148.75 1395.31 1028.44L1395.31 977.25C1395.31 961.717 1407.9 949.125 1423.44 949.125 1438.97 949.125 1451.56 961.717 1451.56 977.25L1451.56 1028.44C1451.36 1179.82 1328.63 1302.46 1177.25 1302.56Z" fill="#13227A"/><path d="M718.812 989.813C657.923 989.812 608.562 940.452 608.562 879.562 608.563 818.673 657.923 769.312 718.813 769.313 779.702 769.313 829.063 818.673 829.063 879.563 829.063 879.625 829.062 879.688 829.062 879.75 829.062 940.536 779.786 989.813 719 989.813 718.938 989.813 718.875 989.813 718.812 989.813ZM718.812 825.75C688.989 825.75 664.812 849.927 664.812 879.75 664.812 909.573 688.989 933.75 718.812 933.75 748.636 933.75 772.812 909.573 772.812 879.75 773.227 849.93 749.388 825.419 719.568 825.005 719.316 825.002 719.064 825 718.812 825ZM593.562 1700.44C532.673 1700.44 483.312 1651.08 483.312 1590.19 483.313 1529.3 532.673 1479.94 593.563 1479.94 654.452 1479.94 703.813 1529.3 703.812 1590.19 703.812 1590.25 703.812 1590.31 703.812 1590.37 703.709 1651.19 654.379 1700.44 593.562 1700.44ZM593.562 1536.38C563.739 1536.38 539.562 1560.55 539.562 1590.37 539.562 1620.2 563.739 1644.37 593.562 1644.37 623.386 1644.37 647.562 1620.2 647.562 1590.37 647.562 1560.55 623.386 1536.38 593.562 1536.38ZM1423.44 989.813C1362.55 989.916 1313.1 940.639 1313 879.75 1312.9 818.861 1362.17 769.416 1423.06 769.313 1483.95 769.209 1533.4 818.486 1533.5 879.375 1533.5 879.5 1533.5 879.625 1533.5 879.75 1533.4 940.493 1484.18 989.709 1423.44 989.813ZM1423.44 825.75C1393.61 825.647 1369.35 849.739 1369.25 879.562 1369.15 909.385 1393.24 933.646 1423.06 933.749 1452.89 933.853 1477.15 909.76 1477.25 879.937 1477.25 879.875 1477.25 879.812 1477.25 879.75 1477.66 849.93 1453.83 825.419 1424.01 825.005 1423.82 825.002 1423.63 825.001 1423.44 825ZM1198.81 1289.81C1183.28 1289.81 1170.69 1277.22 1170.69 1261.69L1170.69 1176.38C1170.58 1147.14 1146.86 1123.5 1117.62 1123.5L1038.31 1123.5C1009.08 1123.5 985.353 1147.14 985.25 1176.38L985.25 1261.69C985.25 1277.22 972.658 1289.81 957.125 1289.81 941.592 1289.81 929 1277.22 929 1261.69L929 1176.38C929.103 1116.08 978.014 1067.25 1038.31 1067.25L1117.62 1067.25C1177.92 1067.25 1226.83 1116.08 1226.94 1176.38L1226.94 1261.69C1226.94 1277.22 1214.35 1289.81 1198.81 1289.81Z" fill="#13227A"/><path d="M956.937 1706.25C874.095 1706.25 806.937 1639.09 806.937 1556.25L806.937 1464.38C813.474 1413.01 777.135 1366.08 725.772 1359.54 674.41 1353 627.474 1389.34 620.937 1440.71 619.937 1448.56 619.937 1456.52 620.937 1464.38L620.937 1498.12C620.937 1513.66 608.345 1526.25 592.812 1526.25 577.279 1526.25 564.687 1513.66 564.687 1498.12L564.687 1464.38C572.961 1381.95 646.49 1321.83 728.919 1330.11 799.912 1337.23 856.061 1393.38 863.187 1464.38L863.187 1556.25C856.256 1607.56 892.233 1654.77 943.544 1661.71 994.855 1668.64 1042.07 1632.66 1049 1581.35 1050.12 1573.02 1050.12 1564.58 1049 1556.25L1049 1290C1049 1274.47 1061.59 1261.88 1077.12 1261.88 1092.66 1261.88 1105.25 1274.47 1105.25 1290L1105.25 1556.25C1105.26 1638.44 1039.12 1705.33 956.937 1706.25Z" fill="#13227A"/><path d="M1140.12 1261.88C1140.12 1339.85 1203.34 1403.06 1281.31 1403.06 1359.29 1403.06 1422.5 1339.85 1422.5 1261.88 1422.5 1183.9 1359.29 1120.69 1281.31 1120.69 1203.34 1120.69 1140.12 1183.9 1140.12 1261.88Z" fill="#13227A" fill-opacity="0.3"/></g></g></g></g></svg>