<svg width="3646" height="1896" xmlns="http://www.w3.org/2000/svg" xmlns:xlink="http://www.w3.org/1999/xlink" xml:space="preserve" overflow="hidden"><defs><clipPath id="clip0"><rect x="377" y="225" width="3646" height="1896"/></clipPath><linearGradient x1="1629.96" y1="410.75" x2="1921.13" y2="896.044" gradientUnits="userSpaceOnUse" spreadMethod="reflect" id="fill1"><stop offset="0" stop-color="#6DA7FF"/><stop offset="0.531" stop-color="#0C6DFF"/><stop offset="1" stop-color="#064EBC"/></linearGradient></defs><g clip-path="url(#clip0)" transform="translate(-377 -225)"><text font-family="HYDaSongJ,HYDaSongJ_MSFontService,sans-serif" font-weight="400" font-size="275" transform="matrix(1 0 0 1 1536.55 1204)">要配得上<tspan font-size="275" x="586.008" y="451">你的</tspan><tspan fill="#C00000" font-family="PangMenZhengDao-Cu6.0,PangMenZhengDao-Cu6.0_MSFontService,sans-serif" font-size="413" x="1125.25" y="502">野心</tspan><tspan font-size="275" x="-624.701" y="-452">你的</tspan></text><path d="M1521.22 651.018 1558.28 651.018 1564.86 660.82C1566.83 663.774 1568.74 665.743 1570.57 666.728 1572.41 667.713 1575.74 668.205 1580.57 668.205L1643.01 668.205 1643.01 695.464 1571.58 695.464C1563.43 695.464 1557.34 694.703 1553.32 693.181 1549.29 691.659 1545.39 687.989 1541.63 682.17ZM1523.1 610.197 1560.57 610.197 1564.46 616.24C1566.34 619.194 1568.2 621.141 1570.03 622.081 1571.87 623.021 1575.25 623.491 1580.17 623.491L1642.61 623.491 1642.61 651.018 1571.18 651.018C1563.12 651.018 1556.94 650.055 1552.65 648.131 1548.35 646.206 1544.54 642.693 1541.23 637.59ZM1666.78 599.589 1703.04 599.589 1703.04 707.951 1755.67 707.951 1755.67 737.224 1719.55 737.224 1731.91 757.5C1733.34 760.006 1734.61 761.685 1735.73 762.535 1736.85 763.385 1739.42 763.811 1743.45 763.811L1755.67 763.811 1755.67 793.352 1730.03 793.352C1720.18 793.352 1713.62 791.964 1710.35 789.189 1707.09 786.414 1704.65 783.549 1703.04 780.595L1684.91 748.772 1650.53 780.595C1647.67 783.281 1644.04 786.078 1639.66 788.988 1635.27 791.897 1627.84 793.352 1617.37 793.352L1521.22 793.352 1521.22 763.811 1602.6 763.811C1609.94 763.811 1615.13 763.072 1618.17 761.595 1621.22 760.118 1624.26 758.081 1627.3 755.485L1649.06 737.224 1521.22 737.224 1521.22 707.951 1666.78 707.951ZM1849.53 546.281 1888.2 546.281 1886.73 567.094 2033.63 567.094 2033.63 762.468C2033.63 765.511 2033.11 769.204 2032.08 773.546 2031.05 777.887 2028.48 782.229 2024.36 786.571 2020.24 790.912 2013.4 793.083 2003.82 793.083L1939.77 793.083 1939.63 759.917 1978.71 759.917C1980.95 759.917 1984.19 759.447 1988.44 758.507 1992.69 757.567 1994.87 754.948 1994.95 750.651L1995.09 600.395 1883.5 600.395 1871.42 756.425C1870.79 764.124 1868 772.158 1863.03 780.528 1858.06 788.898 1847.7 793.083 1831.94 793.083L1793.27 793.083 1793.54 758.977 1815.83 758.977C1822.1 758.977 1826.48 758.126 1828.99 756.425 1831.49 754.725 1833.06 750.338 1833.69 743.266L1845.91 600.395 1789.38 600.395 1789.51 567.094 1848.06 567.094ZM1622.07 543.73 1655.77 543.73 1662.89 553.264 1755.67 553.264 1755.67 600.664 1719.55 600.664 1719.55 582.536 1557.34 582.536 1557.34 600.664 1521.22 600.664 1521.22 553.264 1615.35 553.264Z" fill="url(#fill1)" fill-rule="evenodd"/><text fill="#000000" fill-opacity="0" font-family="Arial,Arial_MSFontService,sans-serif" font-size="249.622" x="1521.22" y="762.149">实力</text><rect x="3524" y="225" width="499" height="92.9998" fill="#6DA7FF"/><rect x="3930" y="225" width="92.9998" height="499" fill="#6DA7FF"/><rect x="377" y="2028" width="499" height="92.9998" fill="#6DA7FF"/><rect x="377" y="1622" width="92.9998" height="499" fill="#6DA7FF"/></g></svg>